#!OML:ASF F:\VICON\USERDATA\INSTALL\rory3\rory3.ASF
:FULLY-SPECIFIED
:DEGREES
63
root 0.6746134227810139 17.898598765137358 20.185760946117636 -3.3605742637601588 -1.3504484333398397 2.2318699411403613
lfemur 0.48046907221658763 -2.6668934345911075 -27.493557176793388
ltibia 22.440664901083153
lfoot -15.961170335258387 4.473459317263333
ltoes 1.9376310030421382
rfemur -29.402516742626304 1.6600995116939896 20.076023605723808
rtibia 55.47174179482193
rfoot -9.593020697802832 -9.14582435839922
rtoes 1.6631335942960033
lowerback 10.722412117426828 -0.08507685352705718 -2.376600591913337
upperback 0.8427129284138171 -0.30585679482826045 0.9576346991715897
thorax -4.944820508319026 -0.083986374820465 2.287218526899628
lowerneck -16.817662865110364 -2.7744675516697908 -2.769050657505991
upperneck 20.060986880679472 -3.5927379493933267 1.7257318575451146
head 9.103059245295105 -1.6715296483656192 0.5282238346081287
lclavicle -1.9532406169118407e-15 9.067692338731048e-16
lhumerus -27.13850594322055 -1.7830551446804612 83.40534824647015
lradius 25.043447696408897
lwrist 5.9408638014201856
lhand -26.863154163695608 23.120877328299258
lfingers 7.12502
lthumb -0.40956026949724755 52.92754947941897
rclavicle -1.9532406170645185e-15 9.067692337329126e-16
rhumerus -29.47997018839342 -18.822568815106024 -78.50673841964408
rradius 27.359371183211948
rwrist 2.5772085244882565
rhand -18.01472439596774 21.753341668600513
rfingers 7.12502
rthumb 8.142098164411612 -8.190840017861406
64
root 0.6514687905703157 17.85276813134251 21.22627802550924 -2.733268122069913 -0.49290810146375397 2.9961527820409697
lfemur 3.657679464743781 -2.469304349457175 -28.230033255603107
ltibia 18.520593044184615
lfoot -16.574796942999015 4.583962279585784
ltoes 2.2321714890702435
rfemur -30.059309352885588 2.646981311456851 18.88054129499575
rtibia 43.63672001303141
rfoot -8.652817710643939 -11.222997153620158
rtoes 1.7185526386276235
lowerback 10.444482624456224 -0.40186053022301504 -3.2551153167170614
upperback 0.8414042529652037 -0.791013068700102 0.929623025464638
thorax -4.843574963155347 -0.31490105717630035 2.7862277231494
lowerneck -16.872622236093562 -2.775232486675511 -2.8004742393536834
upperneck 19.84023785844834 -3.6070247534732776 1.8352407202381333
head 9.02680093924196 -1.674738219590238 0.5736939626440454
lclavicle -1.953240616913927e-15 9.06769233870864e-16
lhumerus -25.39715997544193 -3.157893780970002 83.336473983827
lradius 26.539291470598883
lwrist 6.252776374375993
lhand -26.955536004363633 23.398551944525124
lfingers 7.12502
lthumb -0.4300881233680685 53.22396830123844
rclavicle -1.953240617071373e-15 9.067692337262167e-16
rhumerus -29.8923250206995 -19.47653942634203 -78.09065453330889
rradius 26.897577570906787
rwrist 2.8265232473397597
rhand -18.175144962730272 21.80159264238349
rfingers 7.12502
rthumb 7.9895978977908575 -8.10143882449524
65
root 0.6254978319005359 17.82753583989066 21.80787715450921 -1.996610742342071 0.2420755419129459 3.3443205817033648
lfemur 7.056062385550749 -2.2467164815149547 -28.448332823026266
ltibia 14.551033380790368
lfoot -16.07585544118289 4.081269135515305
ltoes 1.7882258983703774
rfemur -29.060339935836843 5.083903244360125 17.06038455306784
rtibia 30.008319555977874
rfoot -8.585640655891599 -13.506842699772758
rtoes 1.5273215186317113
lowerback 9.931701872443258 -0.6963154787940488 -3.636517011836699
upperback 0.8203072185392222 -1.1892597987240174 0.9723634880051208
thorax -4.6689295026451605 -0.4924911998718364 3.034996234408627
lowerneck -16.93516175160174 -2.771297929094299 -2.788379806722042
upperneck 19.738720146612366 -3.604294178056482 1.905294054495064
head 8.99227906885297 -1.6673714613752997 0.5987163930994784
lclavicle -1.9532406169140756e-15 9.067692338701211e-16
lhumerus -23.960827549944902 -4.2438521839669265 83.18545056913975
lradius 27.802180456975655
lwrist 6.670700338405065
lhand -28.09399738227518 21.295775520046647
lfingers 7.12502
lthumb -1.3236075917279586 51.52599037636498
rclavicle -1.9532406170741363e-15 9.067692337230544e-16
rhumerus -30.327883811617937 -20.190935963167085 -77.60008969610938
rradius 26.29718221138865
rwrist 3.33126524410027
rhand -18.17319380375603 22.136272533377205
rfingers 7.12502
rthumb 8.042896092331539 -7.726752936621453
66
root 0.5849476332689125 17.82495779430151 22.381007055348377 -1.3281077974010458 0.9148943012787218 3.698059185554904
lfemur 10.287503864747901 -2.5187297908485564 -28.45863035544754
ltibia 12.078000177284302
lfoot -14.752855622503954 2.6859916205725467
ltoes 1.439655109077139
rfemur -27.549114668953642 7.987830695487474 14.902693861072729
rtibia 18.355396361679137
rfoot -11.48975136535483 -16.169689374419917
rtoes 0.12069216330329402
lowerback 9.51619250086316 -0.9168612679110625 -4.1084163841676675
upperback 0.776645303947775 -1.5265774103826106 1.0262288047367194
thorax -4.539317209302422 -0.6691105145983967 3.318095155239697
lowerneck -16.97598464674586 -2.7469036475547175 -2.7473118721715397
upperneck 19.67826375869489 -3.5621659157740693 1.890962445944807
head 8.968056591458364 -1.647752898808038 0.5928756455402336
lclavicle -1.9532406169111335e-15 9.067692338717432e-16
lhumerus -22.63806088571359 -5.110491054049651 83.13146044240364
lradius 29.021422735299332
lwrist 7.478894091763265
lhand -27.971370435255015 21.653946833303443
lfingers 7.12502
lthumb -1.2821480012390811 51.73211431174437
rclavicle -1.9532406170756173e-15 9.067692337206296e-16
rhumerus -30.698992492146893 -21.164771176090756 -77.07815406737144
rradius 25.479505247124695
rwrist 4.193013996540052
rhand -18.15281474673632 22.514719602888526
rfingers 7.12502
rthumb 8.065644829623063 -7.383337685533066
67
root 0.5184492600516888 17.801750404843535 22.643243650690966 -0.8304804695136994 1.525119618840936 3.6184463711577126
lfemur 12.512202168206311 -3.0507899809569596 -28.123302699242075
ltibia 12.732841497256945
lfoot -13.336512071404076 0.8015050837818762
ltoes -0.38393798010048874
rfemur -26.991585803870425 7.864477248711902 15.233985026824476
rtibia 14.705595559360464
rfoot -13.62128891153991 -15.32944531257112
rtoes -1.6983589137621338
lowerback 9.296779887982654 -1.0490894045636279 -4.313569297087898
upperback 0.7166960236396953 -1.7316452531042081 1.1445397865180096
thorax -4.471917412415249 -0.7709676386845918 3.6414069985898023
lowerneck -17.01809698804014 -2.7129408732651252 -2.7055899811010606
upperneck 19.651508171520064 -3.518183566123114 1.8904061891474755
head 8.954200055559264 -1.6319065071348735 0.6034895125079461
lclavicle -1.9532406169060986e-15 9.067692338751124e-16
lhumerus -21.782083115821457 -5.417033938565058 83.04273173646251
lradius 29.97275310911031
lwrist 7.868890994468828
lhand -27.90552407881765 22.01713249551778
lfingers 7.12502
lthumb -1.196758011546993 52.151673585159074
rclavicle -1.9532406170741075e-15 9.06769233720725e-16
rhumerus -30.974072241055694 -21.973215972160435 -76.60065134185737
rradius 24.549009917716532
rwrist 5.744321919105633
rhand -18.14980832904599 22.725344671658014
rfingers 7.12502
rthumb 8.066415872545402 -7.1990678516309154
68
root 0.4455039187276208 17.74027518909038 23.03950463631643 -0.6626237455735078 1.8290941013430762 3.4520133366123074
lfemur 14.138011000238865 -4.157416163340638 -27.743988146560717
ltibia 15.300811930732369
lfoot -12.317874954942116 -0.8107896509398002
ltoes -4.576501071409103
rfemur -27.16056422296154 5.888227048331076 17.338967583306072
rtibia 18.501213837957916
rfoot -11.081839811391873 -10.908022548982464
rtoes -3.2089931192938637
lowerback 9.165783158938051 -1.0772202361350471 -4.171020790225911
upperback 0.6652291845141161 -1.8178629047353465 1.2580583353307806
thorax -4.462773761538378 -0.8058262181241949 3.673570981928926
lowerneck -17.049048976203046 -2.668948327818938 -2.6760713478675227
upperneck 19.727712875370297 -3.4622482038294304 1.89657545617944
head 8.988317886469599 -1.6095935174949343 0.6204487323558946
lclavicle -1.953240616896646e-15 9.067692338823731e-16
lhumerus -21.581669296620223 -5.842137119191492 83.11533604900454
lradius 30.787184382766274
lwrist 8.021600003212763
lhand -27.597388212849214 22.919434206175964
lfingers 7.12502
lthumb -0.8880080136402074 53.13059007409771
rclavicle -1.95324061707595e-15 9.067692337175688e-16
rhumerus -31.15440536106109 -22.53891022400972 -76.26993809968124
rradius 23.774573685859096
rwrist 7.134625459592835
rhand -18.037683991737495 22.875349694291522
rfingers 7.12502
rthumb 8.139116405830746 -7.083410162343869
